Coordinates
version=1
nRows=13
nColumns=36
inDegrees=yes

Units are S.I. units (second, meters, Newtons, ...)
If the header above contains a line with 'inDegrees', this indicates whether rotational values are in degrees (yes) or radians (no).

endheader
time	pelvis_tilt	pelvis_list	pelvis_rotation	pelvis_tx	pelvis_ty	pelvis_tz	hip_flexion_r	hip_adduction_r	hip_rotation_r	knee_angle_r	knee_angle_r_beta	ankle_angle_r	subtalar_angle_r	mtp_angle_r	hip_flexion_l	hip_adduction_l	hip_rotation_l	knee_angle_l	knee_angle_l_beta	ankle_angle_l	subtalar_angle_l	mtp_angle_l	lumbar_extension	lumbar_bending	lumbar_rotation	arm_flex_r	arm_add_r	arm_rot_r	elbow_flex_r	pro_sup_r	arm_flex_l	arm_add_l	arm_rot_l	elbow_flex_l	pro_sup_l
      0.00000000	     -0.18708659	     -1.50545677	      4.56294388	     -0.07519579	      0.93477362	     -0.26825386	     25.43587709	     -2.24936430	     -4.59507948	      3.00843706	      0.05250713	      2.24121203	      1.61695734	     -4.67966474	    -16.43055061	     -3.94250905	     -7.90065122	      7.52584804	      0.13135083	     21.37422828	     15.43257974	     -4.67966474	     -5.90740300	     -5.64463692	    -13.36730852	     -6.98444781	     -6.72567824	     -7.50549993	     38.54482625	    101.56729533	     18.17578858	    -11.64972872	      0.68777423	     45.73858869	    101.87428825
      0.01000000	     -0.07767340	     -2.01847337	      4.85185712	     -0.06203465	      0.93395355	     -0.26694295	     25.05507282	     -1.75261786	     -4.47902124	      3.88140744	      0.06774334	      1.45778891	      1.34001382	     -4.69456805	    -16.85499242	     -4.81587354	     -7.72519401	      8.40769869	      0.14674202	     20.99630858	     15.28025590	     -4.69456805	     -5.99318177	     -4.63674853	    -13.59128124	     -7.04913160	     -6.89990109	     -7.67749172	     38.23336537	    101.55022872	     18.01182895	    -11.54488982	      0.74229209	     45.67294781	    101.95235621
      0.02000000	      0.10034436	     -2.63819185	      5.27111958	     -0.04867179	      0.93332375	     -0.26561201	     24.53628191	     -1.14868991	     -4.77072544	      4.59852305	      0.08025937	      0.10215292	      0.54535703	     -4.71550395	    -17.21397087	     -5.89422806	     -7.73352151	      9.50899672	      0.16596330	     20.54602993	     14.86367220	     -4.71550395	     -6.05700986	     -3.56801128	    -13.90565983	     -7.07060341	     -7.04011569	     -7.92702217	     37.82053474	    101.52452085	     17.77125759	    -11.43046830	      0.79064190	     45.58507625	    102.06370760
      0.03000000	      0.21362999	     -3.30348751	      5.61691562	     -0.03541447	      0.93276608	     -0.26392993	     23.90615181	     -0.31323482	     -3.83361235	      4.78593038	      0.08353024	     -3.28949624	     -3.38319885	     -4.85887867	    -17.43778306	     -6.97545315	     -7.43151294	     10.71366600	      0.18698875	     19.94905058	     13.90750441	     -4.85887867	     -6.08470199	     -2.44167188	    -14.24901426	     -6.98149123	     -7.09009603	     -8.30348316	     37.33393909	    101.61114301	     17.40177887	    -11.35957978	      0.59593588	     45.57132342	    102.78735748
      0.04000000	      0.41932842	     -3.97585398	      5.95432744	     -0.02193870	      0.93251472	     -0.26217372	     23.42857811	      0.44772327	     -4.08839628	      5.58833338	      0.09753482	     -4.17593865	     -3.80686297	     -4.88286589	    -17.63894354	     -8.11264779	     -7.32616018	     12.12358568	      0.21159649	     19.14271978	     13.35301670	     -4.88286589	     -6.21749899	     -1.29555600	    -14.41808071	     -6.97867390	     -7.19841450	     -8.43873342	     37.02748828	    101.59680142	     17.10379609	    -11.26535454	      0.70905224	     45.48674339	    102.90134184
      0.05000000	      0.56588979	     -4.64833849	      6.29496235	     -0.00846630	      0.93245486	     -0.26023993	     22.93514826	      1.29249986	     -3.80779619	      6.17039220	      0.10769366	     -6.35254575	     -5.84149509	     -4.99272187	    -17.68423839	     -9.16177415	     -6.44644287	     13.65228065	      0.23827725	     17.99164702	     11.64849765	     -4.99272187	     -6.24895912	     -0.18770169	    -14.65660383	     -6.84729652	     -7.26139954	     -8.64931483	     36.65894918	    101.62347518	     16.65501922	    -11.25000793	      0.80835572	     45.41794601	    103.36828175
      0.06000000	      0.80555213	     -5.36807172	      6.57370724	      0.00517153	      0.93268258	     -0.25803037	     22.44532983	      2.21795254	     -4.02691453	      7.01377686	      0.12241350	     -7.12927661	     -6.62056666	     -5.03838838	    -17.58172530	    -10.33922175	     -6.08361215	     15.63627176	      0.27290443	     16.73922986	     10.51130066	     -5.03838838	     -6.40617325	      0.98705098	    -14.73013516	     -6.73672216	     -7.29988022	     -8.76551523	     36.44160554	    101.61595347	     16.22154619	    -11.21584202	      0.98119268	     45.31714818	    103.53949945
      0.07000000	      1.06971533	     -6.05118201	      6.85089190	      0.01873684	      0.93312038	     -0.25569500	     21.95035058	      3.13556012	     -4.14690669	      7.92053492	      0.13823941	     -7.74998426	     -7.51857933	     -5.07545746	    -17.28110425	    -11.46235794	     -5.43949976	     17.96868674	      0.31361275	     15.26947789	      9.06770678	     -5.07545746	     -6.61782533	      2.09554666	    -14.74276312	     -6.58004123	     -7.27891931	     -8.87517146	     36.25561034	    101.60144601	     15.78637276	    -11.18317362	      1.21033680	     45.24509951	    103.67488678
      0.08000000	      1.29829194	     -6.70926730	      7.08142324	      0.03219842	      0.93364516	     -0.25320447	     21.52475151	      4.06897365	     -4.19648950	      8.89206421	      0.15519580	     -8.18300714	     -8.57573803	     -5.11247023	    -16.70928419	    -12.49842384	     -4.55703426	     20.64307064	      0.36028955	     13.48389263	      7.20904072	     -5.11247023	     -6.81578889	      3.16376618	    -14.68383226	     -6.38374100	     -7.21568435	     -8.98754936	     36.12275815	    101.58505096	     15.29712411	    -11.20273854	      1.50495516	     45.14969554	    103.80111585
      0.09000000	      1.39208751	     -7.17099142	      7.28307551	      0.04532405	      0.93414426	     -0.25089916	     21.27207194	      4.79229071	     -3.90464579	      9.99994806	      0.17453202	     -8.75019538	    -10.22400989	     -5.19600211	    -15.73166022	    -13.11332449	     -2.94771482	     23.63632636	      0.41253172	     10.81001566	      3.78451589	     -5.19600211	     -6.90727447	      4.01466756	    -14.57369595	     -6.13678697	     -7.17156295	     -9.18154526	     35.99883955	    101.56085848	     14.84954240	    -11.22927491	      2.00501792	     44.99546332	    104.02863724
      0.10000000	      1.72900227	     -7.85585039	      7.42721706	      0.05855406	      0.93487696	     -0.24834089	     20.71721568	      5.82310084	     -3.94980612	     11.00003038	      0.19198675	     -8.30087091	    -11.05331259	     -5.22987147	    -14.74254083	    -14.18982637	     -2.40256686	     27.07211671	      0.47249757	      8.55065016	      2.28023906	     -5.22987147	     -7.27888164	      5.13433666	    -14.29107377	     -5.85222092	     -7.16345640	     -9.24800336	     35.99212767	    101.54972444	     14.40694877	    -11.19263775	      2.33543107	     44.88905414	    104.11235653
      0.11000000	      1.88658649	     -8.45297523	      7.50474151	      0.07136412	      0.93539043	     -0.24578085	     20.39303435	      6.74624250	     -3.91614891	     12.09330240	      0.21106794	     -7.73543352	    -11.93012520	     -5.26710997	    -13.28316925	    -15.03502795	     -1.51972214	     30.82810069	      0.53805186	      5.69984759	      0.08430932	     -5.26710997	     -7.50399669	      6.11925345	    -13.94793174	     -5.49785015	     -7.10173355	     -9.33033356	     36.05262980	    101.53951280	     13.99221643	    -11.16130896	      2.80790457	     44.75658919	    104.20285220
      0.12000000	      1.93476721	     -8.98579689	      7.47746545	      0.08393320	      0.93576891	     -0.24327299	     20.17506565	      7.60304261	     -3.85514783	     13.19004183	      0.23020966	     -6.98367496	    -12.72202919	     -5.31344472	    -11.55481525	    -15.66277005	     -0.50070811	     34.69504916	      0.60554284	      2.18350428	     -2.72048584	     -5.31344472	     -7.62639573	      7.03157723	    -13.50898911	     -5.11825082	     -7.09127719	     -9.42909075	     36.17437499	    101.53116612	     13.57217555	    -11.14980813	      3.40979795	     44.49768143	    104.29419179
